<svg width="191" height="288" viewBox="0 0 191 288" fill="none" xmlns="http://www.w3.org/2000/svg">
<path d="M84.8 219.6C87.2 219.6 89.1 217.7 89.1 215.3C89.1 212.9 87.2 211 84.8 211C82.4 211 80.5 212.9 80.5 215.3C80.5 217.7 82.5 219.6 84.8 219.6Z" fill="white" stroke="#524D48" stroke-miterlimit="10"/>
<path d="M85.0998 240.401C87.4998 240.401 89.3998 238.501 89.3998 236.101C89.3998 233.701 87.4998 231.801 85.0998 231.801C82.6998 231.801 80.7998 233.701 80.7998 236.101C80.7998 238.501 82.6998 240.401 85.0998 240.401Z" fill="white" stroke="#524D48" stroke-miterlimit="10"/>
<path d="M66.5001 150.301C66.5001 150.301 59.8001 179.901 71.7001 181.401C84.9001 183.101 97.9001 189.001 101 180.401C104 171.901 104.2 152.601 104.2 152.601C100 153.701 85.6001 162.601 66.5001 150.301Z" fill="white" stroke="#524D48" stroke-width="2" stroke-miterlimit="10"/>
<path d="M66.2999 176.3C66.2999 176.3 38.3999 176 27.8999 194.2C16.8999 211.7 13.7999 243.4 28.6999 243.8C43.5999 244.2 139.3 248.2 143.4 239.7C147.5 231.2 143 207.3 131.9 188.9C122.3 177.3 104.4 177.7 104.4 177.7C104.4 177.7 85.1999 185.8 66.2999 176.3Z" fill="white" stroke="#524D48" stroke-width="1.5" stroke-miterlimit="10"/>
<path d="M39.6 49.5C33.7 60 26.4 70.7 23.6 82.4C20.8 94.1 21.1 106.9 27 117.5C29.3 121.7 31.8 125.7 32.4 130.5C33.3 137.8 27.8 144.1 23.1 149.6C18.6 154.9 18.2 160.6 16.5 167.3C14.8 174 15.3 182.3 21 186.3C21.9 187 27.2 191.9 28.3 191.9C29.3 191.9 31 190.1 31.7 189.3C41.1 178.1 53.9 176.8 67.5 175.6C67.4 169.7 67.3 163.7 67.2 157.8C67.2 155.1 67 152.3 65.5 150.1C64.5 148.6 62.9 147.7 61.5 146.6C56.4 142.8 52.5 137.4 50.4 131.4C46.7 121.1 48.4 109.7 45.9 99.1L39.6 49.5Z" fill="#524D48"/>
<path d="M137 54.4004C142.9 64.9004 144.8 73.2004 147.6 84.9004C150.4 96.6004 147 109 141.2 119.5C138.9 123.7 140.6 127.7 140 132.5C139.1 139.8 144.6 146.1 149.3 151.6C153.8 156.9 153.2 162.6 154.9 169.3C156.6 176 146.6 190.4 140.9 194.5C140 195.2 138.9 195.7 137.7 195.7C136.7 195.7 135.2 195.7 134.8 194.8C127.1 179.7 115.3 179 101.7 177.9C101.8 172 104.1 165.9 104.2 160C104.2 157.3 104.4 154.5 105.9 152.3C106.9 150.8 108.5 149.9 109.9 148.8C115 145 118.9 139.6 121 133.6C124.7 123.3 123 111.9 125.5 101.3L137 54.4004Z" fill="#524D48"/>
<path d="M124.1 119.401C124.1 119.401 125.7 120.101 128.5 116.501C133 110.701 138.2 99.9008 134.4 93.4008C132.5 90.2008 128 93.2008 128 93.2008L124.1 119.401Z" fill="white"/>
<path d="M48.5001 120.4C48.5001 120.4 47.9001 121.6 44.8001 117.7C39.8001 111.7 35.7001 100.3 39.9001 93.5004C42.0001 90.1004 44.8001 93.5004 44.8001 93.5004L48.5001 120.4Z" fill="white"/>
<path d="M43.1001 87.0008C43.1001 122.301 49.6001 131.001 51.9001 135.301C54.3001 138.901 60.9001 156.701 88.6001 156.601C108.5 155.101 120.2 142.801 124.6 130.201C129 117.601 133.6 81.9008 127.9 67.2008C122.2 52.5008 107.2 45.2008 99.7001 43.8008C92.3001 42.5008 43.1001 51.8008 43.1001 87.0008Z" fill="white" stroke="#524D48" stroke-width="2" stroke-miterlimit="10"/>
<path d="M74.8999 96.9C74.9999 96.9 75.0999 96.9 75.1999 96.9C75.2999 96.9 75.4999 96.8 75.5999 96.8C75.6999 96.7 75.7999 96.7 75.7999 96.6V96.5L75.6999 96.4C75.3999 96.2 75.0999 96.1 74.7999 95.9C72.4999 94.7 69.9999 93.5 67.2999 93.5C64.4999 93.7 61.6999 94.5 59.1999 95.8C58.9999 95.9 58.9999 95.9 58.8999 96C58.8999 96.1 58.8999 96.2 58.9999 96.2C59.0999 96.3 59.1999 96.3 59.2999 96.3C59.3999 96.3 59.4999 96.3 59.5999 96.2C59.7999 96.1 59.8999 96.1 60.0999 96C62.5999 94.9 65.0999 93.8 67.7999 94.1C70.2999 94.6 72.6999 95.6 74.8999 96.9Z" fill="#524D48" stroke="#010101" stroke-width="0.1"/>
<path d="M117.8 97.5004C117.5 97.4004 117.2 97.2004 116.9 97.0004C116 96.5004 115 96.0004 114 95.5004C112.7 94.9004 111.3 94.5004 109.9 94.4004C107.2 94.6004 104.5 95.4004 102.1 96.6004C101.9 96.7004 101.9 96.7004 101.8 96.8004C101.8 96.9004 101.8 97.0004 101.9 97.0004C102 97.1004 102.1 97.1004 102.2 97.1004C102.3 97.1004 102.4 97.1004 102.5 97.1004C102.9 96.9004 103.3 96.8004 103.7 96.6004C104.5 96.2004 105.4 95.9004 106.2 95.6004C107.5 95.2004 108.8 94.9004 110.1 95.0004C112.6 95.5004 114.9 96.5004 117 97.9004C117.1 97.9004 117.2 98.0004 117.3 97.9004C117.4 97.9004 117.6 97.8004 117.7 97.8004C117.8 97.7004 117.9 97.7004 117.9 97.6004V97.5004C117.9 97.6004 117.9 97.5004 117.8 97.5004Z" fill="#524D48" stroke="#010101" stroke-width="0.1"/>
<path d="M66.6002 94.8008V97.6008C66.6002 97.7008 66.6002 97.8008 66.6002 97.8008C66.6002 97.9008 66.7002 98.0008 66.8002 98.0008C67.2002 98.2008 67.6002 98.3008 68.1002 98.3008C69.2002 98.4008 70.3002 98.2008 71.2002 97.7008C71.8002 97.2008 71.5002 96.6008 71.2002 96.1008C71.0002 95.6008 70.6002 95.2008 70.2002 94.9008C69.6002 94.5008 68.8002 94.3008 68.0002 94.3008C67.5002 94.3008 67.0002 94.5008 66.6002 94.8008C66.1002 95.0008 65.8002 95.4008 65.6002 95.8008C65.3002 96.2008 65.2002 96.6008 65.2002 97.0008C65.2002 97.4008 65.4002 97.8008 65.6002 98.2008C66.1002 98.6008 66.8002 98.9008 67.5002 99.1008C68.2002 99.2008 69.0002 99.2008 69.7002 99.0008C70.1002 98.9008 70.4002 98.7008 70.6002 98.5008C70.9002 98.3008 71.0002 98.0008 71.1002 97.7008C71.2002 97.3008 71.2002 96.8008 71.1002 96.4008C71.0002 96.0008 70.7002 95.6008 70.3002 95.3008C70.0002 95.0008 69.6002 94.8008 69.1002 94.7008C68.8002 94.7008 68.5002 94.7008 68.2002 94.8008C67.9002 94.9008 67.6002 95.0008 67.4002 95.2008C67.1002 95.5008 66.9002 95.9008 67.0002 96.2008C67.0002 96.6008 67.1002 97.1008 67.3002 97.5008C68.4002 97.2008 68.7002 96.4008 67.9002 96.0008" fill="#524D48"/>
<path d="M108.6 95.1004V98.2004C108.6 98.3004 108.6 98.4004 108.6 98.5004C108.6 98.6004 108.7 98.7004 108.7 98.7004C109 98.9004 109.3 99.0004 109.7 99.0004C110.1 99.1004 110.6 99.0004 111 98.9004C111.4 98.8004 111.8 98.6004 112.1 98.3004C112.3 98.0004 112.4 97.7004 112.4 97.4004C112.4 97.1004 112.3 96.8004 112.1 96.5004C111.9 96.0004 111.7 95.5004 111.3 95.1004C111.1 94.9004 110.8 94.7004 110.5 94.6004C110.2 94.5004 109.9 94.4004 109.6 94.5004C109.2 94.6004 108.7 94.7004 108.4 95.0004C108.1 95.3004 107.8 95.7004 107.7 96.1004C107.5 96.5004 107.4 97.0004 107.4 97.4004C107.4 97.9004 107.5 98.3004 107.7 98.7004C108.1 99.2004 108.6 99.5004 109.1 99.7004C109.7 99.9004 110.3 99.8004 110.8 99.6004C111.1 99.5004 111.3 99.3004 111.5 99.0004C111.7 98.8004 111.8 98.5004 111.9 98.2004C112 97.7004 112 97.3004 111.9 96.8004C111.8 96.3004 111.6 95.9004 111.3 95.5004C111.1 95.2004 110.8 95.0004 110.4 94.9004C110.2 94.9004 109.9 94.9004 109.7 95.0004C109.5 95.1004 109.2 95.2004 109.1 95.4004C108.8 95.7004 108.7 96.1004 108.8 96.5004C108.8 97.0004 108.9 97.5004 109 98.0004C109.2 98.0004 109.3 97.9004 109.4 97.8004C109.5 97.7004 109.6 97.5004 109.7 97.4004C109.8 97.2004 109.8 97.1004 109.7 96.9004C109.7 96.7004 109.6 96.6004 109.5 96.4004" fill="#524D48"/>
<path d="M63.5001 99.2004C65.6001 99.2004 67.6 99.9004 69.7 99.9004C71.2 99.9004 72.7 99.7004 74.1 99.2004C74.7 99.0004 74.5001 98.3004 73.9001 98.5004C70.3001 99.7004 67.2 98.5004 63.6 98.5004C63 98.5004 62.8001 99.2004 63.5001 99.2004Z" fill="#524D48"/>
<path d="M114.8 99.5001C111.2 99.2001 108 100.3 104.5 98.7001C104.1 98.5001 103.4 99.1001 104 99.4001C105.4 100 106.8 100.4 108.3 100.5C110.4 100.6 112.4 100.1 114.5 100.3C115 100.2 115.5 99.5001 114.8 99.5001Z" fill="#524D48"/>
<path d="M90 96.3002C89.8 101.1 91.2 106.2 93.6 110.3C94.9 112.4 97.1 114.1 96.8 116.7C96.6 118.2 96.4 118.3 95.3 119.1C94.8 119.5 94.2 119.8 93.7 120.1C92 120.9 90.2 121.3 88.4 120.8C87.8 120.6 87.5 121.6 88.1 121.8C91.4 122.6 99.4 120.3 98.2 115.8C97.5 113.2 95.1 111.2 93.9 108.8C92 105 90.8 100.7 91 96.4002C91 95.6002 90 95.6002 90 96.3002Z" fill="#524D48"/>
<path d="M76.8999 132.9C79.0999 133.6 81.0999 134.5 83.0999 135.2C85.0999 135.9 86.9999 136.3 88.9999 136.4C90.9999 136.5 92.9999 136.3 94.9999 135.7C96.9999 135.2 98.9999 134.4 101.1 133.4C99.7999 135.3 97.9999 136.9 95.8999 137.9C93.7999 138.9 91.2999 139.5 88.8999 139.4C86.4999 139.3 84.0999 138.5 82.0999 137.3C80.0999 136.1 78.3999 134.6 76.8999 132.9Z" fill="#524D48"/>
<path d="M38.1001 87.8005C30.5001 81.8005 32.5001 85.0005 33.8001 75.5005C34.2001 72.8005 34.9001 70.3005 35.4001 67.6005C36.4001 62.1005 40.8001 63.4005 39.6001 57.9005C39.2001 56.3005 38.8001 54.7005 38.8001 53.0005C38.9001 49.1005 39.6001 49.8005 41.5001 46.3005C42.5001 44.5005 44.2001 42.8005 45.7001 41.4005C47.9001 39.3005 48.3001 39.3005 50.5001 37.2005C52.9001 34.9005 53.6001 32.9005 58.3001 32.4005C59.5001 32.3005 62.3001 30.6005 63.6001 30.9005C66.1001 31.5005 67.0001 30.5005 69.1001 29.0005C76.5001 23.7005 85.2001 23.0005 94.3001 23.5005C102.7 24.0005 110.6 26.5005 114.7 33.9005C115.1 34.7005 115.6 35.6005 116.5 35.9005C117.2 36.1005 117.9 35.9005 118.5 35.8005C121.8 34.9005 124.3 40.6005 127.7 40.8005C131.1 41.1005 131.3 42.5005 133.3 45.3005C135.5 48.4005 135.8 51.1005 136.9 54.3005C137.3 55.4005 138.7 56.6005 138.5 58.5005C138.1 62.4005 136.8 62.3005 138.9 65.5005C141 68.7005 142.2 71.7005 142.9 75.6005C143.6 79.5005 142.1 83.5005 140 86.9005C137.2 91.5005 134.8 86.9005 131.1 90.8005C132.7 77.7005 124.6 73.6005 117.1 62.7005C115.9 60.9005 114.4 59.0005 112.3 58.6005C106.3 57.4005 103 68.8005 97.1001 67.2005C99.0001 65.3005 100.2 62.7005 100.3 60.0005C100.3 59.4005 100.3 58.8005 99.9001 58.3005C99.5001 57.7005 98.7001 57.5005 98.1001 57.4005C91.3001 55.9005 84.4001 54.3005 77.5001 54.9005C70.6001 55.5005 63.5001 58.7005 60.0001 64.6005C59.2001 65.9005 58.6001 67.3005 57.6001 68.3005C55.1001 70.8005 51.0001 70.6005 48.0001 72.4005C43.6001 75.0005 42.6001 81.0005 43.1001 86.1005C43.6001 91.2005 39.5001 82.4005 38.2001 87.4005L38.1001 87.8005Z" fill="#524D48"/>
<path d="M56.1 88.8005C58.7 86.6005 62 86.2005 65.3 86.0005C68.6 85.9005 71.9 86.0005 75 87.1005C76.2 87.5005 76.7 85.6005 75.5 85.2005C71.8 83.9005 67.7 83.8005 63.7 84.1005C60.4 84.3005 57.2 85.1005 54.6 87.4005C53.7 88.2005 55.1 89.6005 56.1 88.8005Z" fill="#524D48"/>
<path d="M121.5 88.4005C118.9 86.2005 115.8 85.4005 112.4 85.1005C108.5 84.8005 104.4 84.9005 100.6 86.2005C99.4001 86.6005 99.9001 88.6005 101.1 88.1005C104.2 87.0005 107.5 86.9005 110.8 87.0005C114.1 87.1005 117.4 87.5005 120 89.8005C121 90.6005 122.4 89.2005 121.5 88.4005Z" fill="#524D48"/>
<path d="M42 113.9C41.8 116.5 40.6 118.9 40.5 121.6C40.4 124.4 40.4 127.4 41.5 130C42.5 132.6 45.5999 135.1 47.9999 132.3C48.4 131.8 47.6999 131.1 47.2999 131.6C44.9999 134.3 42.6999 130.6 42.0999 128.5C41.5999 126.7 41.5 124.7 41.5 122.9C41.5 119.7 42.7 117 43 113.9C43 113.3 42 113.3 42 113.9Z" fill="white"/>
<path d="M130 113.1C130.3 116.2 131.5 118.9 131.5 122.1C131.5 124 131.4 125.9 130.9 127.7C130.4 129.7 128.1 133.6 125.7 130.8C125.3 130.3 124.6 131 125 131.5C127.4 134.3 130.5 131.8 131.5 129.2C132.5 126.7 132.5 123.9 132.5 121.2C132.4 118.4 131.3 115.9 131 113.1C130.9 112.4 129.9 112.4 130 113.1Z" fill="white"/>
<path d="M65.7998 176.5C66.4998 181 67.3998 185.7 70.2998 189.1C71.3998 190.4 72.9998 191.6 74.6998 191.7C77.0998 191.9 79.1998 190.3 80.8998 188.6C82.8998 186.7 84.6998 184.6 86.1998 182.3C87.9998 185.6 90.8998 188.4 94.2998 190C95.3998 190.5 96.5998 190.9 97.7998 190.6C98.5998 190.4 99.2998 189.9 99.8998 189.3C102.4 186.9 104.1 183.6 104.6 180.2C104.7 179.6 104.7 178.8 104.3 178.3C103.6 177.3 102 177.7 100.9 178.1C91.5 180.2 84.5 180.2 75.5 179C72.3 177.7 70 176.2 66.5 175.5" fill="#69C297"/>
<path d="M51.2 197.201C52.6912 197.201 53.9 195.992 53.9 194.501C53.9 193.01 52.6912 191.801 51.2 191.801C49.7088 191.801 48.5 193.01 48.5 194.501C48.5 195.992 49.7088 197.201 51.2 197.201Z" fill="#524D48"/>
<path d="M30.4002 197.201C31.8914 197.201 33.1002 195.992 33.1002 194.501C33.1002 193.01 31.8914 191.801 30.4002 191.801C28.909 191.801 27.7002 193.01 27.7002 194.501C27.7002 195.992 28.909 197.201 30.4002 197.201Z" fill="#524D48"/>
<path d="M61.9002 180.4C63.3914 180.4 64.6002 179.191 64.6002 177.7C64.6002 176.209 63.3914 175 61.9002 175C60.409 175 59.2002 176.209 59.2002 177.7C59.2002 179.191 60.409 180.4 61.9002 180.4Z" fill="#524D48"/>
<path d="M109.5 180.4C110.991 180.4 112.2 179.191 112.2 177.7C112.2 176.209 110.991 175 109.5 175C108.009 175 106.8 176.209 106.8 177.7C106.8 179.191 108.009 180.4 109.5 180.4Z" fill="#524D48"/>
<path d="M74.4002 197.201C75.8914 197.201 77.1002 195.992 77.1002 194.501C77.1002 193.01 75.8914 191.801 74.4002 191.801C72.909 191.801 71.7002 193.01 71.7002 194.501C71.7002 195.992 72.909 197.201 74.4002 197.201Z" fill="#524D48"/>
<path d="M95.2 197.201C96.6912 197.201 97.9 195.992 97.9 194.501C97.9 193.01 96.6912 191.801 95.2 191.801C93.7088 191.801 92.5 193.01 92.5 194.501C92.5 195.992 93.7088 197.201 95.2 197.201Z" fill="#524D48"/>
<path d="M115.2 197.201C116.691 197.201 117.9 195.992 117.9 194.501C117.9 193.01 116.691 191.801 115.2 191.801C113.709 191.801 112.5 193.01 112.5 194.501C112.5 195.992 113.709 197.201 115.2 197.201Z" fill="#524D48"/>
<path d="M133.3 197.201C134.791 197.201 136 195.992 136 194.501C136 193.01 134.791 191.801 133.3 191.801C131.809 191.801 130.6 193.01 130.6 194.501C130.6 195.992 131.809 197.201 133.3 197.201Z" fill="#524D48"/>
<path d="M51.2 229.501C52.6912 229.501 53.9 228.292 53.9 226.801C53.9 225.309 52.6912 224.101 51.2 224.101C49.7088 224.101 48.5 225.309 48.5 226.801C48.5 228.292 49.7088 229.501 51.2 229.501Z" fill="#524D48"/>
<path d="M24.9998 229.501C26.491 229.501 27.6998 228.292 27.6998 226.801C27.6998 225.309 26.491 224.101 24.9998 224.101C23.5086 224.101 22.2998 225.309 22.2998 226.801C22.2998 228.292 23.5086 229.501 24.9998 229.501Z" fill="#524D48"/>
<path d="M74.4002 229.501C75.8914 229.501 77.1002 228.292 77.1002 226.801C77.1002 225.309 75.8914 224.101 74.4002 224.101C72.909 224.101 71.7002 225.309 71.7002 226.801C71.7002 228.292 72.909 229.501 74.4002 229.501Z" fill="#524D48"/>
<path d="M95.2 229.501C96.6912 229.501 97.9 228.292 97.9 226.801C97.9 225.309 96.6912 224.101 95.2 224.101C93.7088 224.101 92.5 225.309 92.5 226.801C92.5 228.292 93.7088 229.501 95.2 229.501Z" fill="#524D48"/>
<path d="M115.2 229.501C116.691 229.501 117.9 228.292 117.9 226.801C117.9 225.309 116.691 224.101 115.2 224.101C113.709 224.101 112.5 225.309 112.5 226.801C112.5 228.292 113.709 229.501 115.2 229.501Z" fill="#524D48"/>
<path d="M139.8 229.501C141.291 229.501 142.5 228.292 142.5 226.801C142.5 225.309 141.291 224.101 139.8 224.101C138.309 224.101 137.1 225.309 137.1 226.801C137.1 228.292 138.309 229.501 139.8 229.501Z" fill="#524D48"/>
<path d="M38.0999 213.701C39.5911 213.701 40.7999 212.492 40.7999 211.001C40.7999 209.51 39.5911 208.301 38.0999 208.301C36.6087 208.301 35.3999 209.51 35.3999 211.001C35.3999 212.492 36.6087 213.701 38.0999 213.701Z" fill="#524D48"/>
<path d="M63.0999 213.701C64.5911 213.701 65.7999 212.492 65.7999 211.001C65.7999 209.51 64.5911 208.301 63.0999 208.301C61.6087 208.301 60.3999 209.51 60.3999 211.001C60.3999 212.492 61.6087 213.701 63.0999 213.701Z" fill="#524D48"/>
<path d="M85.2 213.701C86.6912 213.701 87.9 212.492 87.9 211.001C87.9 209.51 86.6912 208.301 85.2 208.301C83.7088 208.301 82.5 209.51 82.5 211.001C82.5 212.492 83.7088 213.701 85.2 213.701Z" fill="#524D48"/>
<path d="M126.7 213.701C128.191 213.701 129.4 212.492 129.4 211.001C129.4 209.51 128.191 208.301 126.7 208.301C125.209 208.301 124 209.51 124 211.001C124 212.492 125.209 213.701 126.7 213.701Z" fill="#524D48"/>
<path d="M108.3 213.701C109.791 213.701 111 212.492 111 211.001C111 209.51 109.791 208.301 108.3 208.301C106.809 208.301 105.6 209.51 105.6 211.001C105.6 212.492 106.809 213.701 108.3 213.701Z" fill="#524D48"/>
<path d="M38.0999 244.201C39.5911 244.201 40.7999 242.992 40.7999 241.501C40.7999 240.01 39.5911 238.801 38.0999 238.801C36.6087 238.801 35.3999 240.01 35.3999 241.501C35.3999 242.992 36.6087 244.201 38.0999 244.201Z" fill="#524D48"/>
<path d="M63.0999 244.201C64.5911 244.201 65.7999 242.992 65.7999 241.501C65.7999 240.01 64.5911 238.801 63.0999 238.801C61.6087 238.801 60.3999 240.01 60.3999 241.501C60.3999 242.992 61.6087 244.201 63.0999 244.201Z" fill="#524D48"/>
<path d="M85.2 244.201C86.6912 244.201 87.9 242.992 87.9 241.501C87.9 240.01 86.6912 238.801 85.2 238.801C83.7088 238.801 82.5 240.01 82.5 241.501C82.5 242.992 83.7088 244.201 85.2 244.201Z" fill="#524D48"/>
<path d="M126.7 244.201C128.191 244.201 129.4 242.992 129.4 241.501C129.4 240.01 128.191 238.801 126.7 238.801C125.209 238.801 124 240.01 124 241.501C124 242.992 125.209 244.201 126.7 244.201Z" fill="#524D48"/>
<path d="M108.3 244.201C109.791 244.201 111 242.992 111 241.501C111 240.01 109.791 238.801 108.3 238.801C106.809 238.801 105.6 240.01 105.6 241.501C105.6 242.992 106.809 244.201 108.3 244.201Z" fill="#524D48"/>
</svg>
